<?xml version="1.0" standalone="no"?>
<!DOCTYPE svg PUBLIC "-//W3C//DTD SVG 20010904//EN"
 "http://www.w3.org/TR/2001/REC-SVG-20010904/DTD/svg10.dtd">
<svg version="1.0" xmlns="http://www.w3.org/2000/svg"
 width="260.000000pt" height="260.000000pt" viewBox="0 0 260.000000 260.000000"
 preserveAspectRatio="xMidYMid meet">
<metadata>
Created by potrace 1.11, written by Peter Selinger 2001-2013
</metadata>
<g transform="translate(0.000000,260.000000) scale(0.100000,-0.100000)"
fill="#000000" stroke="none">
<path d="M500 2516 c-327 -73 -505 -297 -495 -625 1 -53 8 -118 15 -146 20
-80 79 -183 138 -241 185 -182 566 -206 758 -49 l43 36 6 -38 c4 -21 7 -45 8
-53 2 -12 23 -15 127 -15 l125 1 3 312 2 313 -267 -7 c-148 -3 -270 -10 -273
-14 -3 -5 -5 -59 -5 -122 l0 -113 82 3 c45 1 84 -2 87 -6 3 -5 -8 -25 -24 -44
-94 -114 -306 -107 -381 12 -35 56 -48 117 -44 217 6 216 83 317 241 316 78 0
139 -32 172 -92 l23 -41 172 4 c95 3 180 5 189 5 16 1 16 5 2 54 -50 169 -184
285 -385 333 -49 12 -265 12 -319 0z"/>
<path d="M1744 2514 c-270 -57 -424 -239 -426 -504 -1 -133 43 -259 118 -334
20 -20 35 -38 33 -40 -2 -2 -23 -6 -47 -9 -23 -2 -46 -8 -50 -12 -6 -6 -4
-167 2 -213 3 -16 32 -17 333 -20 l329 -2 -2 27 c-1 16 -5 100 -9 188 -4 88
-8 174 -10 190 -2 17 -3 47 -4 68 l-1 37 -130 0 -129 0 5 -80 c4 -71 2 -80
-13 -80 -9 0 -38 22 -64 49 -37 39 -50 61 -59 104 -15 64 -3 131 31 179 72
100 344 125 516 47 101 -46 147 -174 97 -271 -15 -30 -67 -72 -100 -82 -22 -7
-23 -22 -10 -206 3 -30 5 -78 5 -107 l1 -51 57 15 c174 45 295 164 344 338 19
69 17 243 -4 325 -30 114 -73 188 -156 270 -92 91 -200 147 -336 176 -59 12
-260 11 -321 -2z"/>
<path d="M1953 1259 c-118 -11 -212 -49 -280 -113 -23 -20 -33 -25 -34 -15 -8
104 -1 99 -144 99 l-125 0 0 -313 0 -313 173 3 c94 2 217 5 272 6 l100 3 0
119 0 120 -85 0 c-65 0 -84 3 -82 13 6 30 35 61 85 88 44 25 63 29 128 29 67
0 81 -4 125 -30 37 -24 56 -44 79 -90 28 -55 30 -65 30 -174 -1 -138 -18 -198
-75 -263 -94 -107 -293 -86 -345 36 l-12 28 -149 -2 c-82 -2 -166 -2 -188 -2
l-38 1 5 -38 c12 -91 96 -211 189 -272 106 -68 202 -92 368 -92 202 0 354 57
476 179 123 121 175 266 170 463 -7 221 -103 383 -281 470 -106 52 -225 72
-362 60z"/>
<path d="M565 1188 c2 -18 7 -105 11 -193 4 -88 8 -171 9 -185 1 -14 3 -42 4
-62 l1 -38 129 0 130 0 -5 81 c-4 80 -4 80 18 74 84 -26 146 -163 119 -263
-28 -103 -129 -155 -301 -155 -147 -1 -231 21 -298 78 -65 56 -86 160 -47 234
16 32 67 75 101 85 19 6 21 12 18 59 -5 60 -12 204 -13 260 -1 45 -13 47 -103
16 -115 -38 -206 -118 -259 -224 -42 -85 -58 -169 -54 -279 10 -279 159 -481
417 -566 92 -31 129 -35 273 -34 111 1 142 5 211 28 181 58 296 176 340 346
43 170 1 367 -102 473 -20 21 -35 40 -33 41 3 3 64 12 100 15 5 1 2 158 -5
211 l-3 25 -330 3 -331 2 3 -32z"/>
</g>
</svg>
