<svg xmlns="http://www.w3.org/2000/svg" width="100" height="100" viewBox="0 0 100 100">
  <defs>
    <style>
      .cls-1 {
        fill: #83716b;
      }

      .cls-1, .cls-2 {
        fill-rule: evenodd;
      }

      .cls-2 {
        fill: #f2f1f0;
        opacity: 0.3;
      }
    </style>
  </defs>
  <path class="cls-1" d="M50-.006L100.005,50,50,100.005-0.005,50Z"/>
  <path id="gs" class="cls-2" d="M49.27,52.414L45.207,48.7l1.416-1.944c-2.117.165-4.835-.4-7.857-3.161-4.92-4.494-6.554-11.415-.694-17.516,5.368-5.589,12.908-5.912,19.138-.222,4.626,4.224,6.241,9.806,2.884,14.816L54.105,35.2a4.1,4.1,0,0,0-1.111-5.166c-2.486-2.271-5.624-1.3-8.589,1.783-2.382,2.48-3.7,5.522-.515,8.427,1.284,1.172,3.686,1.86,5.174.937l-2.781-2.539,3.641-3.792,8.637,7.888ZM50.6,53.867l3.415-3.933,2.023,1.51a9.444,9.444,0,0,1,2.616-7.774c4.133-4.761,10.893-6.111,17.334.046,5.9,5.643,6.721,13.245,1.488,19.273-3.885,4.478-9.316,5.866-14.51,2.274L68,59.467a3.824,3.824,0,0,0,5.054-.9c2.089-2.407.921-5.605-2.338-8.721-2.618-2.5-5.723-3.956-8.4-.877a4.664,4.664,0,0,0-.588,5.167l2.336-2.691,4,3.827-7.255,8.358Zm-1.533.691,4.064,3.712-1.416,1.944c2.116-.165,4.835.4,7.857,3.161,4.92,4.493,6.554,11.415.694,17.516-5.368,5.59-12.908,5.912-19.138.223-4.626-4.225-6.241-9.807-2.884-14.817l5.989,5.471a4.1,4.1,0,0,0,1.111,5.166c2.486,2.271,5.624,1.3,8.589-1.783,2.382-2.479,3.7-5.521.515-8.427-1.284-1.173-3.685-1.86-5.173-.938l2.781,2.54L48.418,72.12l-8.637-7.889Zm-1.334-1.453-3.415,3.933L42.3,55.528A9.444,9.444,0,0,1,39.683,63.3c-4.132,4.761-10.893,6.111-17.333-.046-5.9-5.643-6.721-13.245-1.488-19.274,3.885-4.477,9.316-5.866,14.51-2.274l-5.031,5.8a3.825,3.825,0,0,0-5.054.9c-2.089,2.407-.921,5.606,2.338,8.721,2.617,2.5,5.723,3.956,8.4.877a4.665,4.665,0,0,0,.588-5.168l-2.336,2.692-4-3.827,7.256-8.358Z"/>
</svg>
