<svg xmlns="http://www.w3.org/2000/svg" width="44" height="44" viewBox="0 0 44 44">
  <defs>
    <style>
      .cls-1 {
        fill: #849653;
        fill-rule: evenodd;
      }
    </style>
  </defs>
  <path id="Logo_Gs_copy" data-name="Logo Gs copy" class="cls-1" d="M20.842,20.543l-4.357.015-0.256-1.865c-1.118,1.239-2.98,2.388-6.22,2.46-5.272.123-10-2.9-9.993-9.509,0-6.056,4.134-10.31,10.811-10.466,4.957-.113,8.939,2.161,9.767,6.8l-6.418.148a3.249,3.249,0,0,0-3.466-2.317c-2.666.063-3.928,2.3-3.93,5.647,0,2.686.913,5.114,4.323,5.036,1.376-.033,3.125-0.943,3.468-2.267l-2.979.068,0-4.106,9.255-.214Zm2.431,0.108-0.2-4.063,1.983-.241a7.363,7.363,0,0,1-2.765-5.8c-0.248-4.92,2.875-9.336,9.927-9.338,6.465-.005,11.1,3.842,11.41,10.071,0.232,4.626-2.108,8.345-7.042,9.124l-0.3-5.991a2.988,2.988,0,0,0,2.395-3.237c-0.126-2.485-2.545-3.661-6.115-3.659-2.866,0-5.435.859-5.275,4.04a3.653,3.653,0,0,0,2.494,3.234l-0.14-2.779,4.384-.005,0.435,8.637ZM23.161,23.23l4.357-.015,0.256,1.863c1.118-1.238,2.981-2.386,6.22-2.461,5.272-.122,10,2.9,9.993,9.51,0,6.056-4.134,10.313-10.811,10.466-4.957.114-8.938-2.161-9.767-6.8l6.419-.147a3.246,3.246,0,0,0,3.465,2.316c2.666-.063,3.929-2.3,3.931-5.646,0-2.686-.914-5.114-4.323-5.035-1.375.031-3.124,0.941-3.469,2.265l2.98-.068,0,4.107-9.256.212Zm-2.431.129,0.2,4.066-1.983.241a7.353,7.353,0,0,1,2.765,5.8c0.248,4.92-2.875,9.333-9.927,9.338-6.465.005-11.1-3.845-11.409-10.074-0.234-4.624,2.107-8.343,7.041-9.122l0.3,5.988a2.991,2.991,0,0,0-2.395,3.236C5.454,35.323,7.873,36.5,11.444,36.5c2.866,0,5.436-.859,5.275-4.043a3.654,3.654,0,0,0-2.495-3.232L14.364,32,9.979,32,9.545,23.367Z"/>
</svg>
