<svg xmlns="http://www.w3.org/2000/svg" viewBox="0 0 848.208 181.333"><title>Asset 1</title><path d="M78.269,92.912H93.4l.895,7.067c3.882-4.579,10.352-8.759,21.6-8.759,18.315,0,34.738,11.844,34.738,36.827,0,22.893-14.333,38.62-37.525,38.62-17.219,0-31.054-8.958-33.941-26.576h22.3c1.692,5.873,5.972,9.058,12.044,9.058,9.256,0,13.636-8.361,13.636-21,0-10.152-3.185-19.409-15.03-19.409-4.778,0-10.849,3.284-12.044,8.261h10.352v15.527H78.269Z" style="fill:#83716b"/><path d="M78.245,88.4V73.268l7.067-.9c-4.578-3.882-8.759-10.351-8.759-21.6,0-18.314,11.845-34.737,36.828-34.737C136.274,16.036,152,30.369,152,53.56c0,17.22-8.958,31.055-26.576,33.941V65.206c5.873-1.692,9.058-5.972,9.058-12.044,0-9.256-8.361-13.636-21-13.636-10.152,0-19.409,3.185-19.409,15.03,0,4.777,3.285,10.849,8.261,12.043V56.248H117.86V88.4Z" style="fill:#83716b"/><path d="M73.731,88.421H58.6l-.895-7.067c-3.882,4.579-10.352,8.759-21.6,8.759-18.315,0-34.738-11.844-34.738-36.827,0-22.893,14.333-38.619,37.525-38.619,17.219,0,31.054,8.958,33.941,26.575h-22.3c-1.692-5.872-5.972-9.057-12.044-9.057-9.256,0-13.636,8.36-13.636,21,0,10.153,3.185,19.409,15.03,19.409,4.778,0,10.849-3.284,12.044-8.261H41.581V48.807h32.15Z" style="fill:#83716b"/><path d="M73.755,92.936v15.129l-7.067.9c4.578,3.882,8.759,10.352,8.759,21.6,0,18.314-11.845,34.737-36.828,34.737C15.726,165.3,0,150.964,0,127.773c0-17.219,8.958-31.055,26.576-33.941v22.3c-5.873,1.692-9.058,5.972-9.058,12.043,0,9.257,8.361,13.636,21,13.636,10.152,0,19.409-3.185,19.409-15.029,0-4.778-3.285-10.849-8.262-12.044v10.352H34.14V92.936Z" style="fill:#83716b"/><rect x="10.418" y="63.269" width="4.522" height="4.522" style="fill:none"/><path d="M288.136,124.353H272.631l-.918-7.242c-3.979,4.692-10.609,8.976-22.135,8.976-18.769,0-35.6-12.139-35.6-37.742,0-23.461,14.689-39.578,38.456-39.578,17.647,0,31.826,9.18,34.784,27.235H264.369c-1.734-6.018-6.121-9.282-12.343-9.282-9.487,0-13.975,8.568-13.975,21.523,0,10.405,3.264,19.891,15.4,19.891,4.9,0,11.118-3.366,12.343-8.467H255.188V83.755h32.948Z" style="fill:#83716b"/><path d="M351.885,124.149H332.2v-7.855c-5.305,7.345-10.507,9.385-19.279,9.385-11.629,0-19.177-7.141-19.177-22.442V70.7h21.217V99.566c0,7.343,2.55,9.69,7.65,9.69,6.12,0,8.059-4.591,8.059-12.852V70.7h21.217Z" style="fill:#83716b"/><path d="M357.083,124.149V50.705H378.3v73.444Z" style="fill:#83716b"/><path d="M382.888,48.767h21.217v15.1H382.888Zm0,75.382V70.7h21.217v53.451Z" style="fill:#83716b"/><path d="M445.925,91.1a8.019,8.019,0,0,0-2.244-5.508,7.142,7.142,0,0,0-5.508-2.143c-7.956,0-9.282,8.263-9.282,14.587,0,8.059,3.06,13.363,9.282,13.363,5.508,0,7.651-3.774,8.263-7.956h21.421c-.918,8.058-4.591,13.669-10,17.239-5.3,3.468-12.241,5-19.687,5-17.239,0-30.5-9.691-30.5-27.745,0-18.26,12.853-28.766,30.5-28.766,14.28,0,27.745,6.12,29.276,21.931Z" style="fill:#83716b"/><path d="M492.946,109.154v15H471.729V50.705h21.217V87.019L506.513,70.7H531.3L511.511,91.405l22.339,32.744h-25.5l-11.425-18.973Z" style="fill:#83716b"/><path d="M615.857,124.353h-15.5l-.918-7.242c-3.979,4.692-10.608,8.976-22.135,8.976-18.769,0-35.6-12.139-35.6-37.742,0-23.461,14.688-39.578,38.455-39.578,17.647,0,31.826,9.18,34.784,27.235H592.09c-1.734-6.018-6.121-9.282-12.343-9.282-9.486,0-13.974,8.568-13.974,21.523,0,10.405,3.263,19.891,15.4,19.891,4.9,0,11.118-3.366,12.343-8.467H582.91V83.755h32.947Z" style="fill:#83716b"/><path d="M621.87,70.7h19.279V81.511h.2c2.958-8.365,8.16-12.343,16.423-12.343a25.265,25.265,0,0,1,2.754.306V90.691a32.393,32.393,0,0,0-4.386-.612c-8.671,0-13.057,4.08-13.057,15.607v18.463H621.87Z" style="fill:#83716b"/><path d="M691.842,69.168c18.871,0,30.5,11.118,30.5,27.745,0,19.585-13.261,28.766-30.4,28.766s-30.4-9.385-30.4-27.644C661.547,79.471,673.787,69.168,691.842,69.168Zm-9.078,27.745c0,10.1,3.774,14.485,9.181,14.485,5.712,0,9.18-4.386,9.18-14.485,0-7.854-3.468-13.77-8.976-13.465C684.907,83.448,682.764,90.9,682.764,96.913Z" style="fill:#83716b"/><path d="M782.929,124.149H763.243v-7.855c-5.305,7.345-10.507,9.385-19.28,9.385-11.629,0-19.177-7.141-19.177-22.442V70.7H746V99.566c0,7.343,2.55,9.69,7.651,9.69,6.12,0,8.058-4.591,8.058-12.852V70.7h21.217Z" style="fill:#83716b"/><path d="M807.407,70.7v7.956h.2c2.958-6.528,10.608-9.486,16.728-9.486,16.116,0,23.869,13.158,23.869,27.847,0,21.014-13.056,28.664-24.991,28.664-5.814,0-10.1-2.347-13.669-6.835v23.462H788.331V70.7Zm19.585,26.623c0-8.466-3.673-12.444-9.284-12.444-5.1,0-8.568,4.9-8.568,12.036,0,7.447,3.162,12.547,8.671,12.547C823.421,109.46,826.992,104.665,826.992,97.321Z" style="fill:#83716b"/><line x1="182.333" x2="182.333" y2="181.333" style="fill:none;stroke:#83716b;stroke-miterlimit:10;stroke-width:2.5px"/></svg>