<svg xmlns="http://www.w3.org/2000/svg" viewBox="0 0 270.097 156.038"><title>GulickGroup-logo_1</title><rect x="102.016" y="14.169" width="68.413" height="68.413" transform="translate(5.692 110.492) rotate(-45)" style="fill:#83716b"/><path d="M31.672,149.61H36.74v1.477H33.4v.963h3.025v1.378H33.4v1h3.385v1.485H31.672Z" style="fill:#231f20"/><path d="M38.719,149.61h1.944L42.1,153.6l1.44-3.989h1.908l-2.556,6.347H41.266Z" style="fill:#231f20"/><path d="M47.583,149.61h5.068v1.477H49.312v.963h3.024v1.378H49.312v1H52.7v1.485H47.583Z" style="fill:#231f20"/><path d="M55.125,149.61h2.98a2.791,2.791,0,0,1,2.052.675,1.969,1.969,0,0,1,.558,1.468v.017a2,2,0,0,1-1.3,1.946l1.5,2.2H58.915L57.646,154h-.775v1.908H55.125Zm2.907,3.025c.585,0,.937-.288.937-.747v-.018c0-.5-.369-.757-.946-.757H56.871v1.522Z" style="fill:#231f20"/><path d="M64.729,153.554l-2.4-3.944h1.989l1.3,2.3,1.306-2.3H68.87l-2.4,3.916v2.386H64.729Z" style="fill:#231f20"/><path d="M72.478,151.141H70.6V149.61h5.518v1.531h-1.89v4.771H72.478Z" style="fill:#231f20"/><path d="M78.407,149.61h1.746v2.359H82.4V149.61h1.747v6.3H82.4v-2.4H80.153v2.4H78.407Z" style="fill:#231f20"/><path d="M86.831,149.61h1.746v6.3H86.831Z" style="fill:#231f20"/><path d="M91.26,149.61h1.629l2.592,3.331V149.61H97.21v6.3H95.689l-2.7-3.457v3.457H91.26Z" style="fill:#231f20"/><path d="M99.647,152.779v-.018a3.269,3.269,0,0,1,3.384-3.277,3.671,3.671,0,0,1,2.557.909l-1.026,1.243a2.211,2.211,0,0,0-1.522-.594,1.647,1.647,0,0,0-1.611,1.719v.018a1.667,1.667,0,0,0,1.71,1.756,1.744,1.744,0,0,0,1.009-.262v-.764h-1.234V152.23h2.89v2.827a4.2,4.2,0,0,1-2.737.981A3.232,3.232,0,0,1,99.647,152.779Z" style="fill:#231f20"/><path d="M112.328,149.61h3.232a2.359,2.359,0,0,1,1.719.558,1.422,1.422,0,0,1,.406,1.026v.019a1.458,1.458,0,0,1-.973,1.4,1.529,1.529,0,0,1,1.252,1.539v.019c0,1.08-.883,1.737-2.386,1.737h-3.25Zm3.637,1.945c0-.351-.279-.54-.792-.54h-1.144v1.107h1.1c.531,0,.837-.18.837-.549Zm-.6,1.792h-1.332v1.161h1.351c.54,0,.837-.207.837-.576v-.019C116.217,153.571,115.946,153.347,115.361,153.347Z" style="fill:#231f20"/><path d="M120.221,153.148V149.61h1.764v3.5c0,.909.459,1.342,1.162,1.342s1.169-.415,1.169-1.3V149.61h1.765V153.1a2.639,2.639,0,0,1-2.953,2.926A2.6,2.6,0,0,1,120.221,153.148Z" style="fill:#231f20"/><path d="M130.184,151.141H128.3V149.61h5.518v1.531h-1.89v4.771h-1.746Z" style="fill:#231f20"/><path d="M141.677,151.141h-1.882V149.61h5.519v1.531h-1.891v4.771h-1.746Z" style="fill:#231f20"/><path d="M147.607,149.61h1.747v2.359H151.6V149.61h1.747v6.3H151.6v-2.4h-2.241v2.4h-1.747Z" style="fill:#231f20"/><path d="M155.985,149.61h5.069v1.477h-3.34v.963h3.024v1.378h-3.024v1H161.1v1.485h-5.114Z" style="fill:#231f20"/><path d="M167.344,152.779v-.018a3.4,3.4,0,0,1,6.787-.018v.018a3.4,3.4,0,0,1-6.787.018Zm5,0v-.018a1.626,1.626,0,0,0-1.611-1.7,1.608,1.608,0,0,0-1.6,1.684v.018a1.637,1.637,0,0,0,1.62,1.7A1.607,1.607,0,0,0,172.34,152.779Z" style="fill:#231f20"/><path d="M176.559,149.61h2.979a2.792,2.792,0,0,1,2.053.675,1.969,1.969,0,0,1,.557,1.468v.017a2,2,0,0,1-1.295,1.946l1.5,2.2h-2.007L179.079,154h-.774v1.908h-1.746Zm2.907,3.025c.585,0,.936-.288.936-.747v-.018c0-.5-.369-.757-.945-.757h-1.152v1.522Z" style="fill:#231f20"/><path d="M184.56,149.61H187c2.241,0,3.547,1.3,3.547,3.115v.018c0,1.818-1.323,3.169-3.583,3.169h-2.4Zm1.746,1.539v3.214h.711a1.549,1.549,0,0,0,1.747-1.593v-.018a1.56,1.56,0,0,0-1.747-1.6Z" style="fill:#231f20"/><path d="M193.028,149.61h1.746v6.3h-1.746Z" style="fill:#231f20"/><path d="M197.457,149.61h1.629l2.593,3.331V149.61h1.728v6.3h-1.521l-2.7-3.457v3.457h-1.729Z" style="fill:#231f20"/><path d="M208.23,149.565h1.682l2.684,6.347h-1.873l-.45-1.135h-2.44l-.45,1.135h-1.827Zm1.53,3.853-.7-1.782-.712,1.782Z" style="fill:#231f20"/><path d="M214.736,149.61h2.98a2.792,2.792,0,0,1,2.053.675,1.969,1.969,0,0,1,.557,1.468v.017a2,2,0,0,1-1.3,1.946l1.5,2.2h-2.007L217.257,154h-.775v1.908h-1.746Zm2.908,3.025c.585,0,.936-.288.936-.747v-.018c0-.5-.369-.757-.945-.757h-1.153v1.522Z" style="fill:#231f20"/><path d="M224.339,153.554l-2.4-3.944h1.989l1.3,2.3,1.305-2.3h1.955l-2.4,3.916v2.386h-1.746Z" style="fill:#231f20"/><path d="M31.581,140.609h-6.6l-.391-3.084c-1.694,2-4.517,3.823-9.426,3.823C7.168,141.348,0,136.178,0,125.275c0-9.991,6.256-16.855,16.377-16.855,7.515,0,13.554,3.91,14.813,11.6H21.46a5.109,5.109,0,0,0-5.257-3.953c-4.04,0-5.951,3.648-5.951,9.166,0,4.43,1.39,8.47,6.559,8.47,2.086,0,4.735-1.433,5.257-3.6H17.55V123.32H31.581Z" style="fill:#83716b"/><path d="M58.73,140.522H50.346v-3.345c-2.259,3.128-4.475,4-8.211,4-4.952,0-8.166-3.041-8.166-9.557V117.76H43v12.293c0,3.128,1.086,4.127,3.258,4.127,2.607,0,3.432-1.955,3.432-5.473V117.76H58.73Z" style="fill:#83716b"/><path d="M60.944,140.522V109.245h9.035v31.277Z" style="fill:#83716b"/><path d="M71.933,108.42h9.035v6.429H71.933Zm0,32.1V117.76h9.035v22.762Z" style="fill:#83716b"/><path d="M98.778,126.448a3.419,3.419,0,0,0-.955-2.346,3.045,3.045,0,0,0-2.346-.912c-3.388,0-3.953,3.518-3.953,6.212,0,3.432,1.3,5.69,3.953,5.69,2.346,0,3.258-1.607,3.519-3.388h9.122a9.651,9.651,0,0,1-4.257,7.342,15.35,15.35,0,0,1-8.384,2.128c-7.342,0-12.989-4.127-12.989-11.816,0-7.776,5.474-12.25,12.989-12.25,6.081,0,11.816,2.606,12.467,9.34Z" style="fill:#83716b"/><path d="M118.8,134.137v6.385h-9.036V109.245H118.8V124.71l5.777-6.95h10.556l-8.427,8.818,9.513,13.944h-10.86l-4.865-8.079Z" style="fill:#83716b"/><path d="M171.146,140.609h-6.6l-.391-3.084c-1.694,2-4.518,3.823-9.426,3.823-7.993,0-15.161-5.17-15.161-16.073,0-9.991,6.255-16.855,16.377-16.855,7.515,0,13.553,3.91,14.813,11.6h-9.73a5.109,5.109,0,0,0-5.257-3.953c-4.039,0-5.951,3.648-5.951,9.166,0,4.43,1.39,8.47,6.559,8.47,2.086,0,4.735-1.433,5.257-3.6h-4.518V123.32h14.031Z" style="fill:#83716b"/><path d="M173.707,117.76h8.21v4.6H182c1.26-3.563,3.475-5.257,6.994-5.257a10.871,10.871,0,0,1,1.173.13v9.036a13.779,13.779,0,0,0-1.868-.261c-3.693,0-5.56,1.738-5.56,6.647v7.862h-9.036Z" style="fill:#83716b"/><path d="M203.506,117.108c8.036,0,12.989,4.735,12.989,11.816,0,8.34-5.648,12.25-12.946,12.25s-12.945-4-12.945-11.772C190.6,121.5,195.817,117.108,203.506,117.108Zm-3.866,11.816c0,4.3,1.607,6.168,3.909,6.168,2.433,0,3.91-1.868,3.91-6.168,0-3.345-1.477-5.865-3.823-5.734C200.552,123.19,199.64,126.361,199.64,128.924Z" style="fill:#83716b"/><path d="M242.3,140.522h-8.383v-3.345c-2.26,3.128-4.475,4-8.211,4-4.952,0-8.167-3.041-8.167-9.557V117.76h9.036v12.293c0,3.128,1.086,4.127,3.258,4.127,2.606,0,3.432-1.955,3.432-5.473V117.76H242.3Z" style="fill:#83716b"/><path d="M252.72,117.76v3.388h.087c1.26-2.78,4.518-4.04,7.124-4.04,6.864,0,10.166,5.6,10.166,11.859,0,8.949-5.561,12.207-10.643,12.207a7,7,0,0,1-5.821-2.911v9.992H244.6V117.76Zm8.341,11.338c0-3.606-1.564-5.3-3.953-5.3-2.172,0-3.649,2.085-3.649,5.126,0,3.171,1.346,5.343,3.692,5.343C259.541,134.267,261.061,132.225,261.061,129.1Z" style="fill:#83716b"/><path d="M136.771,51.033l3.683-3.682,1.939,1.5c-.17-2.06.387-4.652,3.125-7.39,4.459-4.458,11.34-5.573,17.421.509,5.573,5.572,5.912,12.89.267,18.535-4.192,4.192-9.74,5.379-14.732,1.793l5.428-5.427a4.03,4.03,0,0,0,5.136-.727c2.254-2.253,1.285-5.355-1.793-8.432-2.471-2.471-5.5-3.949-8.383-1.066-1.163,1.163-1.841,3.44-.921,4.943l2.52-2.52,3.78,3.78-7.826,7.826Z" style="fill:#a59893"/><path d="M135.667,49.94l-3.683-3.683,1.5-1.938c-2.06.17-4.652-.388-7.39-3.126-4.458-4.458-5.573-11.339.509-17.421,5.572-5.572,12.89-5.912,18.535-.266,4.192,4.192,5.379,9.74,1.793,14.731l-5.427-5.427a4.031,4.031,0,0,0-.727-5.137c-2.253-2.253-5.355-1.284-8.432,1.793-2.471,2.472-3.949,5.5-1.066,8.384,1.163,1.163,3.441,1.841,4.943.921l-2.52-2.52,3.78-3.78L145.31,40.3Z" style="fill:#a59893"/><path d="M134.573,51.045l-3.683,3.683-1.938-1.5c.17,2.059-.388,4.652-3.125,7.39-4.459,4.458-11.34,5.573-17.422-.509-5.572-5.573-5.912-12.89-.266-18.536,4.192-4.191,9.74-5.379,14.731-1.793l-5.427,5.428a4.03,4.03,0,0,0-5.137.727c-2.253,2.253-1.284,5.355,1.793,8.432,2.472,2.471,5.5,3.949,8.384,1.066,1.163-1.163,1.841-3.441.921-4.943l-2.52,2.52-3.78-3.78L124.93,41.4Z" style="fill:#a59893"/><path d="M135.678,52.138l3.683,3.683-1.5,1.939c2.059-.17,4.652.387,7.39,3.125,4.458,4.459,5.573,11.34-.509,17.421-5.573,5.573-12.89,5.912-18.535.267-4.192-4.192-5.379-9.74-1.793-14.732l5.427,5.428a4.029,4.029,0,0,0,.727,5.136c2.253,2.254,5.355,1.285,8.432-1.793,2.471-2.471,3.949-5.5,1.066-8.383-1.163-1.163-3.441-1.841-4.943-.921l2.52,2.52-3.78,3.78-7.826-7.826Z" style="fill:#a59893"/><polyline points="184.365 48.375 135.989 96.75 87.614 48.375" style="fill:none"/></svg>