<svg xmlns="http://www.w3.org/2000/svg" width="100" height="100" viewBox="0 0 100 100">
  <path fill="#FFF" fill-rule="evenodd" d="M51.6666667 49.9020019L57.5000059 43.9177982 60.5696535 46.3597672C60.3006811 43.0106826 61.1849279 38.7958716 65.5221081 34.3465213 72.5859961 27.1033928 83.4861031 25.2926107 93.1186776 35.1743074 101.947697 44.2316671 102.485642 56.1241942 93.5423092 65.2988236 86.9020527 72.1108135 78.1133792 74.0388653 70.2055902 68.2133205L78.802621 59.3939493C81.7176095 61.0460725 84.5989765 60.6114848 86.9390365 58.210905 90.5130074 54.5514006 88.9765025 49.5088035 84.0980153 44.5110449 80.1844667 40.489384 75.3900335 38.0888043 70.8175025 42.7761432 68.9750414 44.6628057 67.9025139 48.3671485 69.3616893 50.8091176L73.3525675 46.7115763 79.3405658 52.8544391 66.9442997 65.5747523 51.6666667 49.9020019zM49.9031741 48.3333333L43.919014 42.5001888 46.3609652 39.4306436C43.011905 39.696245 38.7971247 38.8153897 34.3478068 34.4783543 27.1047311 27.4113401 25.2905131 16.5115968 35.1755869 6.87934378 44.2294315-1.949381 56.1253211-2.48394583 65.2998836 6.45908841 72.1083748 13.0991232 74.0398617 21.8875035 68.2143593 29.7916665L59.3916033 21.1982847C61.0437144 18.2800314 60.6125789 15.3987606 58.2085676 13.0587787 54.5490898 9.48828911 49.5099786 11.0247427 44.5088073 15.899705 40.4906248 19.816485 38.0900626 24.6107583 42.7773673 29.1797747 44.664016 31.0221742 48.3683319 32.0980279 50.8102831 30.6355393L46.7127717 26.6481563 52.8555898 20.6603578 65.5758103 33.0562102 49.9031741 48.3333333zM48.3333333 50.0979981L42.4999941 56.0822018 39.4303465 53.6402328C39.6993189 56.9893174 38.8150721 61.2006793 34.4778919 65.6534787 27.4140039 72.8966072 16.5138969 74.7073893 6.88132236 64.8256926-1.94769709 55.7683329-2.48564191 43.8758058 6.45769081 34.7011764 13.1013094 27.8891865 21.889983 25.9611347 29.7944098 31.7866795L21.197379 40.6060507C18.2823905 38.9539275 15.4010235 39.3885152 13.0609635 41.789095 9.49035477 45.4485994 11.0234975 50.4911965 15.9019847 55.4889551 19.8155333 59.510616 24.6133287 61.9111957 29.1824975 57.2238568 31.0249586 55.3371943 32.0974861 51.6328515 30.6383107 49.1908824L26.6474325 53.2884237 20.6627964 47.1455609 33.0590624 34.4252477 48.3333333 50.0979981zM50.0964752 51.6666667L56.0806024 57.4998112 53.6421137 60.5693564C56.9877064 60.303755 61.2024635 61.1846103 65.651757 65.5216457 72.8947928 72.5852979 74.7090009 83.4884032 64.8274305 93.1206562 55.7701866 101.949381 43.8743625 102.483946 34.7032994 93.5409116 27.8913966 86.9008768 25.9599204 78.1124965 31.7853907 70.2083335L40.6080982 78.8017153C38.9559962 81.7199686 39.3905783 84.6012394 41.7911274 86.9412213 45.450585 90.5117109 50.4896686 88.9752573 55.4908124 84.100295 59.5089727 80.183515 61.9129708 75.3892417 57.2222428 70.8202253 55.3356045 68.9778258 51.631309 67.9019721 49.1928202 69.3610987L53.28686 73.3518437 47.1475249 79.3396422 34.4273742 66.9437898 50.0964752 51.6666667z" opacity=".15"/>
</svg>
