<svg xmlns="http://www.w3.org/2000/svg" viewBox="0 0 200.93 92.657"><title>GulickGroup-logo-sm_1</title><rect x="8.972" y="59.114" width="4.522" height="4.522" style="fill:none"/><path d="M6.526,86.589H11.31v1.393H8.158v.909h2.855v1.3H8.158v.943h3.2v1.4H6.526Z" style="fill:#231f20"/><path d="M12.585,86.589h1.836l1.352,3.764,1.359-3.764h1.8L16.52,92.581H14.991Z" style="fill:#231f20"/><path d="M20.364,86.589h4.784v1.393H22v.909h2.855v1.3H22v.943h3.2v1.4H20.364Z" style="fill:#231f20"/><path d="M26.891,86.589H29.7a2.635,2.635,0,0,1,1.938.637,1.858,1.858,0,0,1,.526,1.385v.018a1.885,1.885,0,0,1-1.223,1.835l1.419,2.074H30.469l-1.2-1.8h-.731v1.8H26.891Zm2.745,2.855c.552,0,.884-.272.884-.7v-.018c0-.475-.349-.714-.893-.714H28.539v1.437Z" style="fill:#231f20"/><path d="M35.365,90.311,33.1,86.589h1.878L36.2,88.755l1.232-2.166h1.845l-2.261,3.7v2.252H35.365Z" style="fill:#231f20"/><path d="M42.088,88.033H40.312V86.589h5.21v1.444H43.737v4.5H42.088Z" style="fill:#231f20"/><path d="M47.1,86.589h1.649v2.226H50.86V86.589h1.648v5.949H50.86V90.277H48.744v2.261H47.1Z" style="fill:#231f20"/><path d="M54.456,86.589h1.65v5.949h-1.65Z" style="fill:#231f20"/><path d="M58.043,86.589h1.538l2.448,3.144V86.589h1.632v5.949H62.225l-2.55-3.264v3.264H58.043Z" style="fill:#231f20"/><path d="M65.371,89.58v-.017a3.087,3.087,0,0,1,3.2-3.094,3.464,3.464,0,0,1,2.413.859L70.011,88.5a2.077,2.077,0,0,0-1.435-.561,1.555,1.555,0,0,0-1.522,1.623v.017a1.573,1.573,0,0,0,1.614,1.657,1.651,1.651,0,0,0,.953-.246v-.723H68.456V89.061h2.728V91.73a3.96,3.96,0,0,1-2.583.927A3.052,3.052,0,0,1,65.371,89.58Z" style="fill:#231f20"/><path d="M76.157,86.589h3.05a2.226,2.226,0,0,1,1.623.526,1.337,1.337,0,0,1,.383.97V88.1a1.375,1.375,0,0,1-.918,1.326,1.444,1.444,0,0,1,1.182,1.453V90.9c0,1.021-.833,1.641-2.253,1.641H76.157Zm3.433,1.835c0-.332-.263-.509-.748-.509h-1.08V88.96H78.8c.5,0,.791-.17.791-.519Zm-.569,1.692H77.762v1.1h1.276c.509,0,.79-.2.79-.544v-.017C79.828,90.328,79.573,90.116,79.021,90.116Z" style="fill:#231f20"/><path d="M83.016,89.928V86.589h1.666v3.305c0,.859.434,1.267,1.1,1.267s1.1-.391,1.1-1.224V86.589h1.666v3.3a2.491,2.491,0,0,1-2.788,2.762A2.455,2.455,0,0,1,83.016,89.928Z" style="fill:#231f20"/><path d="M91.83,88.033H90.054V86.589h5.21v1.444H93.479v4.5H91.83Z" style="fill:#231f20"/><path d="M101.5,88.033H99.719V86.589h5.21v1.444h-1.785v4.5H101.5Z" style="fill:#231f20"/><path d="M106.5,86.589h1.649v2.226h2.116V86.589h1.648v5.949h-1.648V90.277h-2.116v2.261H106.5Z" style="fill:#231f20"/><path d="M113.822,86.589h4.784v1.393h-3.152v.909h2.855v1.3h-2.855v.943h3.2v1.4h-4.827Z" style="fill:#231f20"/><path d="M123.358,89.58v-.017a3.207,3.207,0,0,1,6.409-.017v.017a3.207,3.207,0,0,1-6.409.017Zm4.718,0v-.017a1.535,1.535,0,0,0-1.522-1.606,1.518,1.518,0,0,0-1.513,1.589v.017a1.547,1.547,0,0,0,1.53,1.607A1.517,1.517,0,0,0,128.076,89.58Z" style="fill:#231f20"/><path d="M131.467,86.589h2.813a2.635,2.635,0,0,1,1.938.637,1.859,1.859,0,0,1,.527,1.385v.018a1.886,1.886,0,0,1-1.224,1.835l1.419,2.074h-1.9l-1.2-1.8h-.73v1.8h-1.649Zm2.745,2.855c.552,0,.884-.272.884-.7v-.018c0-.475-.349-.714-.892-.714h-1.088v1.437Z" style="fill:#231f20"/><path d="M138.428,86.589h2.3c2.116,0,3.349,1.223,3.349,2.94v.017c0,1.717-1.25,2.992-3.383,2.992h-2.269Zm1.649,1.453v3.034h.671a1.461,1.461,0,0,0,1.649-1.5v-.018a1.471,1.471,0,0,0-1.649-1.512Z" style="fill:#231f20"/><path d="M145.831,86.589h1.65v5.949h-1.65Z" style="fill:#231f20"/><path d="M149.418,86.589h1.538l2.448,3.144V86.589h1.632v5.949H153.6l-2.55-3.264v3.264h-1.632Z" style="fill:#231f20"/><path d="M159,86.546h1.589l2.534,5.992h-1.768l-.426-1.072h-2.3l-.424,1.072h-1.726Zm1.445,3.637L159.78,88.5l-.671,1.682Z" style="fill:#231f20"/><path d="M164.549,86.589h2.813a2.635,2.635,0,0,1,1.938.637,1.859,1.859,0,0,1,.527,1.385v.018a1.886,1.886,0,0,1-1.224,1.835l1.419,2.074h-1.895l-1.2-1.8h-.73v1.8h-1.649Zm2.745,2.855c.552,0,.884-.272.884-.7v-.018c0-.475-.348-.714-.892-.714H166.2v1.437Z" style="fill:#231f20"/><path d="M173.023,90.311l-2.269-3.722h1.878l1.224,2.166,1.232-2.166h1.845l-2.261,3.7v2.252h-1.649Z" style="fill:#231f20"/><path d="M23.494,77.063H18.582l-.291-2.294c-1.261,1.486-3.361,2.844-7.013,2.844C5.332,77.613,0,73.767,0,65.656c0-7.433,4.654-12.539,12.183-12.539,5.591,0,10.083,2.908,11.02,8.628H15.964a3.8,3.8,0,0,0-3.91-2.94c-3.005,0-4.427,2.714-4.427,6.818,0,3.3,1.034,6.3,4.879,6.3,1.552,0,3.523-1.066,3.911-2.682H13.056V64.2H23.494Z" style="fill:#83716b"/><path d="M43.69,77H37.453V74.51c-1.68,2.327-3.328,2.973-6.108,2.973-3.684,0-6.075-2.262-6.075-7.109V60.065h6.722V69.21c0,2.327.807,3.07,2.423,3.07,1.939,0,2.553-1.454,2.553-4.071V60.065H43.69Z" style="fill:#83716b"/><path d="M45.337,77V53.731h6.722V77Z" style="fill:#83716b"/><path d="M53.512,53.117h6.722V57.9H53.512Zm0,23.882V60.065h6.722V77Z" style="fill:#83716b"/><path d="M73.483,66.528a2.541,2.541,0,0,0-.711-1.745,2.266,2.266,0,0,0-1.745-.679c-2.521,0-2.941,2.618-2.941,4.622,0,2.553.97,4.233,2.941,4.233a2.546,2.546,0,0,0,2.618-2.521h6.786A7.178,7.178,0,0,1,77.264,75.9a11.41,11.41,0,0,1-6.237,1.583c-5.462,0-9.662-3.07-9.662-8.79,0-5.784,4.071-9.113,9.662-9.113,4.524,0,8.79,1.939,9.275,6.948Z" style="fill:#83716b"/><path d="M88.379,72.248V77H81.658V53.731h6.721V65.236l4.3-5.171h7.852l-6.269,6.56L101.338,77H93.259L89.64,70.988Z" style="fill:#83716b"/><path d="M127.319,77.063h-4.912l-.291-2.294c-1.261,1.486-3.361,2.844-7.013,2.844-5.946,0-11.278-3.846-11.278-11.957,0-7.433,4.653-12.539,12.183-12.539,5.591,0,10.083,2.908,11.02,8.628h-7.239a3.8,3.8,0,0,0-3.91-2.94c-3.005,0-4.427,2.714-4.427,6.818,0,3.3,1.034,6.3,4.879,6.3,1.552,0,3.523-1.066,3.911-2.682h-3.361V64.2h10.438Z" style="fill:#83716b"/><path d="M129.224,60.065h6.107v3.426h.065c.937-2.651,2.585-3.911,5.2-3.911a8.046,8.046,0,0,1,.872.1V66.4a10.2,10.2,0,0,0-1.389-.194c-2.747,0-4.136,1.293-4.136,4.944V77h-6.722Z" style="fill:#83716b"/><path d="M151.392,59.58c5.978,0,9.662,3.523,9.662,8.79,0,6.2-4.2,9.113-9.63,9.113s-9.63-2.973-9.63-8.757C141.794,62.844,145.672,59.58,151.392,59.58Zm-2.876,8.79c0,3.2,1.2,4.589,2.908,4.589,1.81,0,2.909-1.389,2.909-4.589,0-2.488-1.1-4.362-2.844-4.266C149.194,64.1,148.516,66.463,148.516,68.37Z" style="fill:#83716b"/><path d="M180.249,77h-6.237V74.51c-1.681,2.327-3.329,2.973-6.108,2.973-3.684,0-6.075-2.262-6.075-7.109V60.065h6.721V69.21c0,2.327.808,3.07,2.424,3.07,1.939,0,2.553-1.454,2.553-4.071V60.065h6.722Z" style="fill:#83716b"/><path d="M188,60.065v2.521h.065c.937-2.069,3.361-3.006,5.3-3.006,5.106,0,7.562,4.169,7.562,8.822,0,6.658-4.137,9.081-7.918,9.081a5.212,5.212,0,0,1-4.33-2.165v7.433H181.96V60.065Zm6.205,8.435c0-2.683-1.164-3.943-2.941-3.943-1.616,0-2.714,1.551-2.714,3.813,0,2.359,1,3.975,2.747,3.975C193.077,72.345,194.208,70.826,194.208,68.5Z" style="fill:#83716b"/><rect x="84.769" y="6.676" width="32.234" height="32.234" transform="translate(13.432 78.013) rotate(-45)" style="fill:#83716b"/><path d="M101.145,24.046l1.735-1.736.913.708a4.3,4.3,0,0,1,1.473-3.482c2.1-2.1,5.343-2.626,8.208.24,2.626,2.626,2.786,6.073.126,8.733-1.975,1.976-4.589,2.535-6.941.845l2.557-2.557a1.9,1.9,0,0,0,2.42-.342c1.062-1.062.606-2.523-.844-3.973-1.165-1.165-2.592-1.861-3.95-.5a2.067,2.067,0,0,0-.434,2.329l1.187-1.187,1.781,1.781-3.687,3.687Z" style="fill:#a59893"/><path d="M100.624,23.531,98.889,21.8l.708-.913a4.3,4.3,0,0,1-3.482-1.473c-2.1-2.1-2.626-5.343.24-8.208,2.625-2.626,6.073-2.786,8.733-.126,1.975,1.975,2.534,4.59.845,6.942l-2.557-2.558a1.9,1.9,0,0,0-.343-2.42c-1.062-1.062-2.523-.605-3.973.845-1.164,1.164-1.861,2.591-.5,3.95a2.069,2.069,0,0,0,2.329.434L99.7,17.08,101.48,15.3l3.688,3.688Z" style="fill:#a59893"/><path d="M100.109,24.051l-1.735,1.736-.913-.708a4.3,4.3,0,0,1-1.473,3.482c-2.1,2.1-5.343,2.625-8.209-.24-2.625-2.626-2.785-6.074-.125-8.734,1.975-1.975,4.589-2.534,6.941-.844L92.038,21.3a1.9,1.9,0,0,0-2.42.342c-1.062,1.062-.606,2.523.844,3.973,1.165,1.165,2.592,1.861,3.95.5a2.068,2.068,0,0,0,.434-2.329l-1.187,1.187L91.878,23.2l3.687-3.687Z" style="fill:#a59893"/><path d="M100.63,24.566l1.735,1.736-.708.913a4.3,4.3,0,0,1,3.482,1.473c2.1,2.1,2.626,5.342-.24,8.208-2.625,2.626-6.073,2.786-8.733.126-1.975-1.976-2.534-4.59-.845-6.942l2.557,2.558a1.9,1.9,0,0,0,.343,2.42c1.062,1.062,2.523.6,3.973-.845,1.164-1.164,1.861-2.591.5-3.95a2.067,2.067,0,0,0-2.329-.434l1.187,1.188-1.78,1.78L96.086,29.11Z" style="fill:#a59893"/><polyline points="123.57 22.793 100.776 45.586 77.983 22.793" style="fill:none"/></svg>